
          <svg data-logo="logo" xmlns="http://www.w3.org/2000/svg" viewBox="0 0 43 40">
            <g id="logogram" transform="translate(0, 0) rotate(0)"><path fill-rule="evenodd" clip-rule="evenodd" d="M23.2222 8.42105C21.836 8.42105 20.4634 8.69332 19.1828 9.22232C17.9021 9.75132 16.7385 10.5267 15.7583 11.5041C14.7781 12.4816 14.0006 13.642 13.4702 14.9191C12.9984 16.0549 12.7302 17.2633 12.6767 18.4891C12.6644 18.7697 12.5078 19.0266 12.2565 19.1519L8.85465 20.8481C8.6033 20.9734 8.44219 21.2303 8.45445 21.5109C8.50801 22.7367 8.77616 23.9451 9.24794 25.0809C9.77841 26.358 10.5559 27.5184 11.5361 28.4959C12.5163 29.4733 13.6799 30.2487 14.9606 30.7777C16.2412 31.3067 17.6138 31.5789 19 31.5789C20.3862 31.5789 21.7588 31.3067 23.0394 30.7777C24.3201 30.2487 25.4837 29.4733 26.4639 28.4959C27.4441 27.5184 28.2216 26.358 28.7521 25.0809C29.2238 23.9451 29.492 22.7367 29.5456 21.5109C29.5578 21.2303 29.7144 20.9734 29.9658 20.8481L33.3676 19.1519C33.6189 19.0266 33.78 18.7697 33.7678 18.4891C33.7142 17.2633 33.4461 16.0549 32.9743 14.9191C32.4438 13.642 31.6663 12.4816 30.6861 11.5041C29.706 10.5267 28.5423 9.75132 27.2617 9.22232C25.981 8.69332 24.6084 8.42105 23.2222 8.42105ZM28.0983 16.9332C28.3047 17.4304 28.4332 17.9553 28.48 18.4896C28.5045 18.7694 28.3411 19.0266 28.0898 19.1519L24.688 20.8481C24.4366 20.9734 24.2823 21.2306 24.2578 21.5104C24.211 22.0447 24.0825 22.5696 23.876 23.0668C23.6108 23.7053 23.222 24.2855 22.732 24.7742C22.2419 25.263 21.66 25.6507 21.0197 25.9152C20.3794 26.1797 19.6931 26.3158 19 26.3158C18.3069 26.3158 17.6206 26.1797 16.9803 25.9152C16.34 25.6507 15.7581 25.263 15.268 24.7742C14.778 24.2855 14.3892 23.7053 14.124 23.0668C13.9175 22.5696 13.789 22.0447 13.7422 21.5104C13.7177 21.2306 13.8811 20.9734 14.1324 20.8481L17.5342 19.1519C17.7856 19.0266 17.9399 18.7694 17.9644 18.4896C18.0112 17.9553 18.1397 17.4304 18.3462 16.9332C18.6114 16.2947 19.0002 15.7145 19.4903 15.2258C19.9804 14.737 20.5622 14.3493 21.2025 14.0848C21.8428 13.8203 22.5291 13.6842 23.2222 13.6842C23.9153 13.6842 24.6016 13.8203 25.2419 14.0848C25.8823 14.3493 26.4641 14.737 26.9542 15.2258C27.4443 15.7145 27.833 16.2947 28.0983 16.9332Z" fill="#E22935"/><path fill-rule="evenodd" clip-rule="evenodd" d="M23.2222 0C20.7271 0 18.2564 0.490088 15.9512 1.44228C13.6461 2.39448 11.5515 3.79013 9.78719 5.54956C8.02288 7.30898 6.62335 9.39772 5.66851 11.6965C4.77234 13.8541 4.28436 16.157 4.22778 18.489C4.22097 18.7698 4.06337 19.0266 3.81202 19.1519L0.410206 20.8481C0.158851 20.9734 -0.00125333 21.2302 0.00555929 21.511C0.0621404 23.843 0.550117 26.1459 1.44629 28.3035C2.40113 30.6023 3.80066 32.691 5.56497 34.4504C7.32929 36.2099 9.42383 37.6055 11.729 38.5577C14.0342 39.5099 16.5049 40 19 40C21.4951 40 23.9658 39.5099 26.271 38.5577C28.5762 37.6055 30.6707 36.2099 32.435 34.4504C34.1994 32.691 35.5989 30.6023 36.5537 28.3035C37.4499 26.1459 37.9379 23.843 37.9944 21.511C38.0013 21.2302 38.1589 20.9734 38.4102 20.8481L41.812 19.1519C42.0634 19.0266 42.2235 18.7698 42.2167 18.489C42.1601 16.157 41.6721 13.8541 40.7759 11.6965C39.8211 9.39773 38.4216 7.30898 36.6573 5.54956C34.8929 3.79013 32.7984 2.39448 30.4932 1.44228C28.188 0.490088 25.7173 0 23.2222 0ZM32.7145 21.5109C32.724 21.2302 32.8811 20.9734 33.1324 20.8481L36.5342 19.1519C36.7856 19.0266 36.9462 18.7698 36.9367 18.4891C36.8816 16.8484 36.5308 15.2296 35.8999 13.7106C35.2103 12.0504 34.1995 10.5419 32.9253 9.27117C31.6511 8.00047 30.1383 6.9925 28.4735 6.30481C26.8086 5.61711 25.0243 5.26316 23.2222 5.26316C21.4202 5.26316 19.6358 5.61711 17.971 6.30481C16.3061 6.9925 14.7934 8.00047 13.5191 9.27117C12.2449 10.5419 11.2341 12.0504 10.5445 13.7106C9.91362 15.2296 9.56283 16.8484 9.5077 18.4891C9.49827 18.7698 9.34115 19.0266 9.08979 19.1519L5.68798 20.8481C5.43663 20.9734 5.27604 21.2302 5.28548 21.5109C5.34061 23.1516 5.69139 24.7704 6.32232 26.2894C7.01193 27.9496 8.0227 29.4581 9.29692 30.7288C10.5712 31.9995 12.0839 33.0075 13.7487 33.6952C15.4136 34.3829 17.198 34.7368 19 34.7368C20.802 34.7368 22.5864 34.3829 24.2513 33.6952C25.9161 33.0075 27.4289 31.9995 28.7031 30.7288C29.9773 29.4581 30.9881 27.9496 31.6777 26.2894C32.3086 24.7704 32.6594 23.1516 32.7145 21.5109Z" fill="#E22935"/><path fill-rule="evenodd" clip-rule="evenodd" d="M42.2168 18.5186H36.9372C36.9348 18.7877 36.7768 19.031 36.5343 19.1519L33.1325 20.8481C32.8899 20.9691 32.7351 21.2124 32.7161 21.4815H37.9958C38.0125 21.2123 38.1677 20.9691 38.4102 20.8481L41.8121 19.1519C42.0546 19.031 42.2122 18.7877 42.2168 18.5186ZM0.00549316 21.4815H5.28514C5.28746 21.2124 5.44548 20.9691 5.68802 20.8481L9.08983 19.1519C9.33237 19.031 9.48717 18.7877 9.5062 18.5186H4.22655C4.20982 18.7877 4.05458 19.031 3.81205 19.1519L0.410243 20.8481C0.167714 20.9691 0.0101398 21.2123 0.00549316 21.4815ZM12.6749 18.5186C12.6534 18.7876 12.4991 19.031 12.2565 19.1519L8.85469 20.8481C8.61214 20.9691 8.45362 21.2125 8.45383 21.4815H13.7404C13.7292 21.213 13.8898 20.9691 14.1325 20.8481L17.5343 19.1519C17.7769 19.0309 17.9292 18.787 17.9615 18.5186H12.6749ZM28.4819 18.5186C28.4931 18.787 28.3325 19.0309 28.0898 19.1519L24.688 20.8481C24.4454 20.9691 24.2931 21.213 24.2608 21.4815H29.5474C29.5689 21.2125 29.7232 20.9691 29.9658 20.8481L33.3676 19.1519C33.6102 19.031 33.7687 18.7876 33.7685 18.5186H28.4819Z" fill="#FF6670"/></g>
            <g id="logotype" transform="translate(43, 20)"></g>
            
          </svg>
        